<?xml version="1.0" encoding="UTF-8" standalone="no"?>
<!-- Created with Inkscape (http://www.inkscape.org/) -->

<svg
   xmlns:dc="http://purl.org/dc/elements/1.1/"
   xmlns:cc="http://creativecommons.org/ns#"
   xmlns:rdf="http://www.w3.org/1999/02/22-rdf-syntax-ns#"
   xmlns:svg="http://www.w3.org/2000/svg"
   xmlns="http://www.w3.org/2000/svg"
   xmlns:sodipodi="http://sodipodi.sourceforge.net/DTD/sodipodi-0.dtd"
   xmlns:inkscape="http://www.inkscape.org/namespaces/inkscape"
   width="800px"
   height="600px"
   id="svg3006"
   version="1.1"
   inkscape:version="0.48.3.1 r9886"
   sodipodi:docname="New document 2">
  <defs
     id="defs3008" />
  <sodipodi:namedview
     id="base"
     pagecolor="#ffffff"
     bordercolor="#666666"
     borderopacity="1.0"
     inkscape:pageopacity="0.0"
     inkscape:pageshadow="2"
     inkscape:zoom="0.6"
     inkscape:cx="192.5"
     inkscape:cy="300"
     inkscape:current-layer="layer1"
     inkscape:document-units="px"
     showgrid="false"
     inkscape:window-width="1366"
     inkscape:window-height="718"
     inkscape:window-x="0"
     inkscape:window-y="0"
     inkscape:window-maximized="1" />
  <metadata
     id="metadata3011">
    <rdf:RDF>
      <cc:Work
         rdf:about="">
        <dc:format>image/svg+xml</dc:format>
        <dc:type
           rdf:resource="http://purl.org/dc/dcmitype/StillImage" />
        <dc:title></dc:title>
      </cc:Work>
    </rdf:RDF>
  </metadata>
  <g
     id="layer1"
     inkscape:label="Layer 1"
     inkscape:groupmode="layer">
    <path
       style="fill:none;stroke:#54acf8;stroke-width:9.93892002;stroke-linecap:butt;stroke-linejoin:round;stroke-miterlimit:4;stroke-opacity:1;stroke-dasharray:none"
       d="m 701.00485,299.89223 c -5.14536,-3.62315 -10.29073,-6.8309 -15.43613,-6.63321 -5.1454,0.19769 -10.29076,3.77245 -15.43614,7.3801 -5.1454,3.60764 -10.29077,6.53325 -15.43616,6.05092 -5.14537,-0.48233 -10.29074,-4.28792 -15.43614,-7.85751 -5.14537,-3.56959 -10.29078,-6.19494 -15.43613,-5.43097 -5.14539,0.76397 -10.29078,4.7767 -15.43617,8.28601 -5.14537,3.50932 -10.29077,5.81806 -15.43616,4.77721 -5.14538,-1.04085 -10.29074,-5.23574 -15.43611,-8.66293 -5.1454,-3.42719 -10.29078,-5.40497 -15.43618,-4.09371 -5.14536,1.31126 -10.29074,5.66219 -15.43613,8.98593 -5.14538,3.32373 -10.29077,4.95821 -15.43615,3.38472 -5.14535,-1.5735 -10.29077,-6.0534 -15.43615,-9.25298 -5.14538,-3.19958 -10.29076,-4.48061 -15.43613,-2.65466 -5.1454,1.82594 -10.29078,6.4069 -15.43617,9.46242 -5.14537,3.05552 -10.29074,3.9751 -15.43615,1.90808 -5.14538,-2.06702 -10.29074,-6.72054 -15.43612,-9.61297 -5.1454,-2.89243 -10.29078,-3.44485 -15.43616,-1.14962 -5.14537,2.29524 -10.29075,6.99234 -15.43614,9.70368 -5.14539,2.71134 -10.29076,2.89316 -15.43616,0.384 -5.14536,-2.50916 -10.29074,-7.22061 -15.43615,-9.73397 -5.14539,-2.51337 -10.29076,-2.32347 -15.43614,0.38399 -5.14536,2.70747 -10.29078,7.40394 -15.43616,9.70368 -5.14534,2.29975 -10.29073,1.7393 -15.43612,-1.14961 -5.14539,-2.88892 -10.29078,-7.54116 -15.43615,-9.61298 -5.14539,-2.07182 -10.29078,-1.1443 -15.43616,1.90808 -5.14538,3.05238 -10.29076,7.63145 -15.43616,9.46243 -5.14537,1.83098 -10.29074,0.54218 -15.43611,-2.65466 -5.14539,-3.19684 -10.29077,-7.67423 -15.43617,-9.25298 -5.14535,-1.57875 -10.29077,0.0633 -15.43614,3.38472 -5.14538,3.32141 -10.29076,7.66923 -15.43615,8.98593 -5.14537,1.31669 -10.29076,-0.66842 -15.43614,-4.09371 -5.14537,-3.42529 -10.29076,-7.61649 -15.43613,-8.66293 -5.14538,-1.04644 -10.29079,1.26935 -15.43616,4.77721 -5.14539,3.50785 -10.29079,7.51634 -15.43613,8.28601 -5.1454,0.76967 -10.29079,-1.86239 -15.43617,-5.43097 -5.14538,-3.56858 -10.29076,-7.3694 -15.43612,-7.85752 -5.1454,-0.48811 -10.29077,2.44384 -15.43617,6.05094 -5.14536,3.60709 -10.29076,7.17658 -15.43613,7.38009 -5.14537,0.20351 -10.29079,-3.01007 -15.436165,-6.63322"
       id="path4370"
       inkscape:connector-curvature="0" />
  </g>
</svg>
